<svg width="97" height="97" viewBox="0 0 97 97" fill="none" xmlns="http://www.w3.org/2000/svg">
<g clip-path="url(#clip0_206_2606)">
<path fill-rule="evenodd" clip-rule="evenodd" d="M0.5 10.0958C0.5 4.78966 4.79546 0.5 10.1 0.5H86.9C92.2043 0.5 96.5 4.78966 96.5 10.0958V67.6584C96.5 72.9646 92.2043 77.2539 86.9 77.2539H63.012L51.162 95.0171C50.5685 95.9074 49.5696 96.4418 48.5 96.4418C47.4304 96.4418 46.4315 95.9074 45.838 95.0171L33.988 77.2539H10.1C4.79546 77.2539 0.5 72.9646 0.5 67.6584V10.0958ZM45.4561 56.3815L70.1083 28.2074L65.2917 23.993L45.1444 47.0188L34.763 36.6375L30.2375 41.1629L45.4561 56.3815Z" fill="#7978F8"/>
</g>
<defs>
<clipPath id="clip0_206_2606">
<rect width="96" height="96" fill="white" transform="translate(0.5 0.5)"/>
</clipPath>
</defs>
</svg>
