<svg width="96" height="96" viewBox="0 0 96 96" fill="none" xmlns="http://www.w3.org/2000/svg">
<g clip-path="url(#clip0_250_3175)">
<path fill-rule="evenodd" clip-rule="evenodd" d="M0 9.59584C0 4.28966 4.29546 0 9.6 0H86.4C91.7043 0 96 4.28966 96 9.59584V67.1584C96 72.4646 91.7043 76.7539 86.4 76.7539H62.512L50.662 94.5171C50.0685 95.4074 49.0696 95.9418 48 95.9418C46.9304 95.9418 45.9315 95.4074 45.338 94.5171L33.488 76.7539H9.6C4.29546 76.7539 0 72.4646 0 67.1584V9.59584ZM44.9561 55.8815L69.6083 27.7074L64.7917 23.493L44.6444 46.5188L34.263 36.1375L29.7375 40.6629L44.9561 55.8815Z" fill="#14C00B"/>
</g>
<defs>
<clipPath id="clip0_250_3175">
<rect width="96" height="96" fill="white"/>
</clipPath>
</defs>
</svg>
