<svg width="13" height="13" viewBox="0 0 13 13" fill="none" xmlns="http://www.w3.org/2000/svg">
<path d="M6.5 9.75C7.39917 9.75 8.16562 9.43312 8.79937 8.79937C9.43312 8.16562 9.75 7.39917 9.75 6.5C9.75 5.60083 9.43312 4.83437 8.79937 4.20062C8.16562 3.56687 7.39917 3.25 6.5 3.25C5.60083 3.25 4.83437 3.56687 4.20062 4.20062C3.56687 4.83437 3.25 5.60083 3.25 6.5C3.25 7.39917 3.56687 8.16562 4.20062 8.79937C4.83437 9.43312 5.60083 9.75 6.5 9.75ZM6.5 13C5.60083 13 4.75583 12.8294 3.965 12.4881C3.17417 12.1469 2.48625 11.6838 1.90125 11.0988C1.31625 10.5138 0.853125 9.82583 0.511875 9.035C0.170625 8.24417 0 7.39917 0 6.5C0 5.60083 0.170625 4.75583 0.511875 3.965C0.853125 3.17417 1.31625 2.48625 1.90125 1.90125C2.48625 1.31625 3.17417 0.853125 3.965 0.511875C4.75583 0.170625 5.60083 0 6.5 0C7.39917 0 8.24417 0.170625 9.035 0.511875C9.82583 0.853125 10.5138 1.31625 11.0988 1.90125C11.6838 2.48625 12.1469 3.17417 12.4881 3.965C12.8294 4.75583 13 5.60083 13 6.5C13 7.39917 12.8294 8.24417 12.4881 9.035C12.1469 9.82583 11.6838 10.5138 11.0988 11.0988C10.5138 11.6838 9.82583 12.1469 9.035 12.4881C8.24417 12.8294 7.39917 13 6.5 13ZM6.5 11.7C7.95167 11.7 9.18125 11.1962 10.1887 10.1887C11.1962 9.18125 11.7 7.95167 11.7 6.5C11.7 5.04833 11.1962 3.81875 10.1887 2.81125C9.18125 1.80375 7.95167 1.3 6.5 1.3C5.04833 1.3 3.81875 1.80375 2.81125 2.81125C1.80375 3.81875 1.3 5.04833 1.3 6.5C1.3 7.95167 1.80375 9.18125 2.81125 10.1887C3.81875 11.1962 5.04833 11.7 6.5 11.7Z" fill="#160146"/>
</svg>
