<svg width="27" height="27" viewBox="0 0 27 27" fill="none" xmlns="http://www.w3.org/2000/svg">
<path d="M13.0216 5.34093C12.9431 5.26583 12.8386 5.22391 12.73 5.22391C12.6214 5.22391 12.5169 5.26583 12.4384 5.34093L2.72998 14.6153C2.68875 14.6548 2.65595 14.7022 2.63356 14.7546C2.61117 14.8071 2.59966 14.8636 2.59973 14.9207L2.59814 23.625C2.59814 24.0725 2.77593 24.5018 3.0924 24.8182C3.40887 25.1347 3.83809 25.3125 4.28564 25.3125H9.35342C9.57719 25.3125 9.7918 25.2236 9.95004 25.0654C10.1083 24.9071 10.1972 24.6925 10.1972 24.4687V17.2969C10.1972 17.185 10.2416 17.0777 10.3207 16.9986C10.3998 16.9194 10.5072 16.875 10.619 16.875H14.8378C14.9497 16.875 15.057 16.9194 15.1361 16.9986C15.2152 17.0777 15.2597 17.185 15.2597 17.2969V24.4687C15.2597 24.6925 15.3486 24.9071 15.5068 25.0654C15.665 25.2236 15.8796 25.3125 16.1034 25.3125H21.1691C21.6166 25.3125 22.0459 25.1347 22.3623 24.8182C22.6788 24.5018 22.8566 24.0725 22.8566 23.625V14.9207C22.8566 14.8636 22.8451 14.8071 22.8227 14.7546C22.8004 14.7022 22.7676 14.6548 22.7263 14.6153L13.0216 5.34093Z" fill="white"/>
<path d="M25.1164 12.8751L21.1718 9.10143V3.375C21.1718 3.15122 21.0829 2.93661 20.9247 2.77838C20.7665 2.62014 20.5519 2.53125 20.3281 2.53125H17.7968C17.5731 2.53125 17.3584 2.62014 17.2002 2.77838C17.042 2.93661 16.9531 3.15122 16.9531 3.375V5.0625L13.8987 2.14207C13.6129 1.85309 13.1879 1.6875 12.7285 1.6875C12.2708 1.6875 11.8468 1.85309 11.561 2.1426L0.344395 12.874C0.0163872 13.1905 -0.0247456 13.7109 0.273731 14.0537C0.348683 14.1402 0.440456 14.2106 0.543466 14.2605C0.646476 14.3104 0.758568 14.3389 0.87292 14.3441C0.987272 14.3494 1.10149 14.3313 1.20863 14.2909C1.31577 14.2506 1.41358 14.1889 1.49611 14.1096L12.4385 3.65344C12.517 3.57833 12.6215 3.53642 12.7301 3.53642C12.8388 3.53642 12.9432 3.57833 13.0217 3.65344L23.9652 14.1096C24.1264 14.2642 24.3423 14.3486 24.5656 14.3442C24.7889 14.3399 25.0014 14.2472 25.1564 14.0864C25.4802 13.751 25.4533 13.1973 25.1164 12.8751Z" fill="white"/>
</svg>
