<svg width="36" height="35" viewBox="0 0 36 35" fill="none" xmlns="http://www.w3.org/2000/svg">
<path fill-rule="evenodd" clip-rule="evenodd" d="M7.64578 6.68753C6.7915 7.54179 6.7915 8.91672 6.7915 11.6666V24.7916C6.7915 27.5414 6.7915 28.9163 7.64578 29.7706C8.50004 30.6249 9.87497 30.6249 12.6248 30.6249H21.3748C24.1247 30.6249 25.4996 30.6249 26.3539 29.7706C27.2082 28.9163 27.2082 27.5414 27.2082 24.7916V11.6666C27.2082 8.91672 27.2082 7.54179 26.3539 6.68753C25.4996 5.83325 24.1247 5.83325 21.3748 5.83325H12.6248C9.87497 5.83325 8.50004 5.83325 7.64578 6.68753ZM12.6248 11.6666C11.8194 11.6666 11.1665 12.3195 11.1665 13.1249C11.1665 13.9303 11.8194 14.5833 12.6248 14.5833H21.3748C22.1803 14.5833 22.8332 13.9303 22.8332 13.1249C22.8332 12.3195 22.1803 11.6666 21.3748 11.6666H12.6248ZM12.6248 17.4999C11.8194 17.4999 11.1665 18.1528 11.1665 18.9583C11.1665 19.7637 11.8194 20.4166 12.6248 20.4166H21.3748C22.1803 20.4166 22.8332 19.7637 22.8332 18.9583C22.8332 18.1528 22.1803 17.4999 21.3748 17.4999H12.6248ZM12.6248 23.3333C11.8194 23.3333 11.1665 23.9861 11.1665 24.7916C11.1665 25.597 11.8194 26.2499 12.6248 26.2499H18.4582C19.2636 26.2499 19.9165 25.597 19.9165 24.7916C19.9165 23.9861 19.2636 23.3333 18.4582 23.3333H12.6248Z" fill="white"/>
</svg>
