<svg width="25" height="25" viewBox="0 0 25 25" fill="none" xmlns="http://www.w3.org/2000/svg">
<path d="M21.9063 10.4062L20.0938 11.7188C20.125 11.9688 20.125 12.25 20.125 12.5C20.125 12.7812 20.125 13.0312 20.0938 13.2812L21.9063 14.5938C22.2188 14.7813 22.3125 15.1563 22.125 15.4375L19.9063 19.2187C19.7188 19.5312 19.3438 19.625 19.0313 19.4375L16.9688 18.5313C16.5313 18.8438 16.0625 19.0937 15.5625 19.3125L15.375 21.5625C15.375 21.9062 15.0938 22.1875 14.75 22.1875H10.3125C9.96876 22.1875 9.68751 21.9062 9.68751 21.5625L9.46876 19.3438C8.96876 19.125 8.50001 18.875 8.06251 18.5625L6.00001 19.4688C5.68751 19.6562 5.31251 19.5312 5.12501 19.25L2.93751 15.4375C2.75001 15.125 2.87501 14.75 3.15626 14.5938L4.96876 13.2812C4.93751 13.0312 4.93751 12.75 4.93751 12.5C4.93751 12.25 4.93751 11.9688 4.96876 11.7188L3.15626 10.4062C2.84376 10.2188 2.75001 9.84375 2.93751 9.5625L5.15626 5.78125C5.34376 5.46875 5.71876 5.375 6.03126 5.5625L8.09376 6.46875C8.53126 6.15625 9.00001 5.90625 9.50001 5.6875L9.68751 3.4375C9.68751 3.09375 9.96876 2.8125 10.3125 2.8125H14.75C15.0938 2.8125 15.375 3.09375 15.375 3.4375L15.5938 5.65625C16.0938 5.875 16.5625 6.125 17 6.4375L19.0625 5.53125C19.375 5.34375 19.75 5.46875 19.9375 5.75L22.1563 9.53125C22.3125 9.84375 22.1875 10.2188 21.9063 10.4062ZM12.5313 8.8125C10.4688 8.8125 8.78126 10.4688 8.78126 12.5C8.78126 14.5312 10.4688 16.1875 12.5313 16.1875C14.5938 16.1875 16.2813 14.5312 16.2813 12.5C16.2813 10.4688 14.5938 8.8125 12.5313 8.8125Z" fill="#FAC546"/>
<path d="M14.75 2.5H10.3125C9.8125 2.5 9.375 2.90625 9.375 3.40625L9.15625 5.40625C8.75 5.59375 8.375 5.8125 8.03125 6.0625L6.15625 5.21875C5.71875 4.96875 5.125 5.125 4.875 5.5625L2.65625 9.40625C2.53125 9.625 2.5 9.875 2.5625 10.125C2.625 10.375 2.78125 10.5625 3 10.6875L4.65625 11.875C4.625 12.0938 4.625 12.3125 4.625 12.5312C4.625 12.75 4.625 12.9688 4.65625 13.1875L3 14.375C2.78125 14.5 2.625 14.6875 2.5625 14.9375C2.5 15.1875 2.53125 15.4375 2.65625 15.6562L4.875 19.4375C5.125 19.875 5.6875 20.0313 6.15625 19.7813L8.03125 18.9375C8.375 19.1875 8.78125 19.4062 9.15625 19.5938L9.375 21.5937C9.375 22.0937 9.78125 22.5 10.3125 22.5H14.75C15.25 22.5 15.6875 22.0937 15.6875 21.5937L15.9063 19.5938C16.3125 19.4062 16.6875 19.1875 17.0312 18.9375L18.9062 19.7813C19.3438 20.0313 19.9375 19.875 20.1875 19.4375L22.4062 15.6562C22.5312 15.4375 22.5625 15.1875 22.5 14.9375C22.4375 14.6875 22.2812 14.5 22.0625 14.375L20.4062 13.1875C20.4375 12.9688 20.4375 12.75 20.4375 12.5312C20.4375 12.3125 20.4375 12.0938 20.4062 11.875L22.0625 10.6875C22.2812 10.5625 22.4375 10.375 22.5 10.125C22.5625 9.875 22.5312 9.625 22.4062 9.40625L20.1875 5.625C19.9375 5.1875 19.375 5.03125 18.9062 5.28125L17.0312 6.125C16.6875 5.875 16.2813 5.65625 15.9063 5.46875L15.6875 3.46875C15.6875 2.90625 15.25 2.5 14.75 2.5ZM8.0625 6.75C8.125 6.75 8.1875 6.71875 8.25 6.6875C8.65625 6.375 9.125 6.125 9.59375 5.9375C9.6875 5.90625 9.78125 5.78125 9.78125 5.6875L10 3.46875V3.4375C10 3.25 10.1562 3.125 10.3125 3.125H14.75C14.9375 3.125 15.0625 3.25 15.0625 3.4375V3.46875L15.2812 5.6875C15.2812 5.8125 15.375 5.90625 15.4688 5.9375C15.9375 6.15625 16.375 6.40625 16.8125 6.6875C16.9063 6.75 17.0312 6.75 17.125 6.71875L19.1875 5.8125H19.2188C19.375 5.71875 19.5625 5.78125 19.6562 5.9375L21.875 9.71875C21.9062 9.78125 21.9375 9.875 21.9062 9.9375C21.875 10.0312 21.8438 10.0937 21.75 10.125C21.75 10.125 21.7188 10.125 21.7188 10.1562L19.9062 11.4688C19.8125 11.5312 19.75 11.6563 19.7812 11.75C19.8125 12 19.8125 12.25 19.8125 12.5C19.8125 12.75 19.8125 13 19.7812 13.25C19.7812 13.375 19.8125 13.4688 19.9062 13.5312L21.7188 14.8438C21.7188 14.8438 21.75 14.8438 21.75 14.875C21.8125 14.9062 21.875 15 21.9062 15.0625C21.9375 15.1562 21.9062 15.2188 21.875 15.2812L19.6562 19.0625C19.5625 19.2188 19.375 19.25 19.2188 19.1875H19.1875L17.125 18.2812C17.0312 18.25 16.9063 18.25 16.8125 18.3125C16.4063 18.625 15.9375 18.875 15.4688 19.0625C15.375 19.0938 15.2812 19.2188 15.2812 19.3125L15.0625 21.5312V21.5625C15.0625 21.75 14.9062 21.875 14.75 21.875H10.3125C10.125 21.875 10 21.75 10 21.5625V21.5312L9.78125 19.3125C9.78125 19.1875 9.6875 19.0938 9.59375 19.0625C9.125 18.8438 8.6875 18.5937 8.25 18.3125C8.15625 18.25 8.03125 18.25 7.9375 18.2812L5.875 19.1875H5.84375C5.6875 19.2813 5.5 19.2188 5.40625 19.0625L3.1875 15.2812C3.15625 15.2188 3.125 15.125 3.15625 15.0625C3.1875 14.9687 3.21875 14.9062 3.3125 14.875C3.3125 14.875 3.34375 14.875 3.34375 14.8438L5.15625 13.5312C5.25 13.4688 5.3125 13.3438 5.28125 13.25C5.25 13 5.25 12.75 5.25 12.5C5.25 12.25 5.25 12 5.28125 11.75C5.28125 11.625 5.25 11.5312 5.15625 11.4688L3.34375 10.1562C3.34375 10.1562 3.3125 10.1562 3.3125 10.125C3.25 10.0937 3.1875 10 3.15625 9.9375C3.125 9.84375 3.15625 9.78125 3.1875 9.71875L5.40625 5.9375C5.5 5.78125 5.6875 5.75 5.84375 5.8125H5.875L7.9375 6.71875C7.96875 6.75 8 6.75 8.0625 6.75ZM12.5313 8.5C10.2813 8.5 8.46875 10.3125 8.46875 12.5C8.46875 14.6875 10.2813 16.5 12.5313 16.5C14.7813 16.5 16.5938 14.6875 16.5938 12.5C16.5938 10.3125 14.75 8.5 12.5313 8.5ZM12.5313 15.875C10.625 15.875 9.09375 14.3438 9.09375 12.5C9.09375 10.625 10.625 9.125 12.5313 9.125C14.4375 9.125 15.9688 10.6562 15.9688 12.5C15.9688 14.375 14.4063 15.875 12.5313 15.875Z" fill="#231C1C"/>
<path d="M12.5313 16.875C10.0938 16.875 8.125 14.9062 8.125 12.5C8.125 10.0937 10.0938 8.125 12.5313 8.125C14.9688 8.125 16.9375 10.0937 16.9375 12.5C16.9375 14.9062 14.9375 16.875 12.5313 16.875ZM12.5313 10C11.125 10 10 11.125 10 12.5C10 13.875 11.125 15 12.5313 15C13.9375 15 15.0625 13.875 15.0625 12.5C15.0625 11.125 13.9063 10 12.5313 10Z" fill="#E1E0A6"/>
<path d="M12.5313 7.8125C9.9375 7.8125 7.8125 9.90625 7.8125 12.5C7.8125 15.0938 9.9375 17.1875 12.5313 17.1875C15.125 17.1875 17.25 15.0938 17.25 12.5C17.2187 9.90625 15.125 7.8125 12.5313 7.8125ZM12.5313 16.5625C10.2813 16.5625 8.4375 14.75 8.4375 12.5C8.4375 10.25 10.2813 8.4375 12.5313 8.4375C14.7813 8.4375 16.625 10.25 16.625 12.5C16.5938 14.75 14.7813 16.5625 12.5313 16.5625ZM12.5313 9.6875C10.9688 9.6875 9.6875 10.9375 9.6875 12.5C9.6875 14.0625 10.9688 15.3125 12.5313 15.3125C14.0938 15.3125 15.375 14.0625 15.375 12.5C15.375 10.9375 14.0938 9.6875 12.5313 9.6875ZM12.5313 14.6875C11.3125 14.6875 10.3125 13.7188 10.3125 12.5C10.3125 11.2812 11.3125 10.3125 12.5313 10.3125C13.75 10.3125 14.75 11.2812 14.75 12.5C14.75 13.7188 13.75 14.6875 12.5313 14.6875Z" fill="#231C1C"/>
</svg>
