<svg width="25" height="25" viewBox="0 0 25 25" fill="none" xmlns="http://www.w3.org/2000/svg">
<path d="M10.3828 15.25L9.21094 15.7539C8.81641 15.9219 8.37109 15.9219 7.98047 15.7539L6.80859 15.25C6.23438 15.0039 5.86328 14.4375 5.86328 13.8125V11.7188C5.86328 10.4258 6.91406 9.375 8.20703 9.375H8.98828C10.2812 9.375 11.332 10.4258 11.332 11.7188V13.8125C11.332 14.4375 10.9609 15.0039 10.3867 15.25H10.3828Z" fill="#DDA15E"/>
<path d="M13.7266 17.5781C13.0156 16.8555 12.0273 16.4062 10.9375 16.4062H9.76562C9.76562 17.0547 9.24219 17.5781 8.59375 17.5781C7.94531 17.5781 7.42188 17.0547 7.42188 16.4062H6.25C4.09375 16.4062 2.34375 18.1562 2.34375 20.3125V23.0469H10.9375L12.5 17.5781H13.7266Z" fill="#274C77"/>
<path d="M6.64062 21.4844H7.42188C7.85156 21.4844 8.20312 21.8359 8.20312 22.2656V23.0469H6.64062V21.4844Z" fill="#DDA15E"/>
<path d="M4.6875 12.3945C4.57422 12.4609 4.4375 12.5 4.29688 12.5C3.86719 12.5 3.51562 12.1484 3.51562 11.7188C3.51562 11.2891 3.86719 10.9375 4.29688 10.9375C4.46094 10.9375 4.61328 10.9883 4.74219 11.0781" fill="#274C77"/>
<path d="M12.5 12.3945C12.6133 12.4609 12.75 12.5 12.8906 12.5C13.3203 12.5 13.6719 12.1484 13.6719 11.7188C13.6719 11.2891 13.3203 10.9375 12.8906 10.9375C12.7266 10.9375 12.5742 10.9883 12.4453 11.0781" fill="#274C77"/>
<path d="M7.42188 15.5117L7.97656 15.75C8.37109 15.9219 8.81641 15.9219 9.21094 15.75L9.76562 15.5117V16.4063C9.76562 17.0547 9.24219 17.5781 8.59375 17.5781C7.94531 17.5781 7.42188 17.0547 7.42188 16.4063V15.5117Z" fill="#BC6C25"/>
<path d="M10.9375 23.0469L12.5 17.5781H21.0938L19.5312 23.0469" fill="#8B8C89"/>
<path d="M11.0898 10.6953C10.8672 10.6055 10.6094 10.5469 10.2852 10.5469C8.59375 10.5469 8.59375 12.1094 6.89844 12.1094C6.45703 12.1094 6.12891 12.0039 5.85938 11.8477V11.7188C5.85938 10.4258 6.91016 9.375 8.20312 9.375H8.98438C9.91016 9.375 10.7109 9.91406 11.0898 10.6953Z" fill="#274C77"/>
<path d="M11.3281 13.5156V11.7188C11.3281 10.4258 10.2773 9.375 8.98438 9.375H8.20312C6.91016 9.375 5.85938 10.4258 5.85938 11.7188V13.2812H5.07812C4.86328 13.2812 4.6875 13.1055 4.6875 12.8906V11.7188C4.6875 9.5625 6.4375 7.8125 8.59375 7.8125C9.67188 7.8125 10.6484 8.25 11.3555 8.95703C12.0625 9.66406 12.5 10.6406 12.5 11.7188V12.9609C12.5 13.1484 12.3672 13.3086 12.1875 13.3438L11.3281 13.5156Z" fill="#E7ECEF"/>
<path d="M16.0156 19.9219C16.2305 19.9219 16.4062 20.0977 16.4062 20.3125C16.4062 20.5273 16.2305 20.7031 16.0156 20.7031V19.9219Z" fill="#A3CEF1"/>
<path d="M8.59375 14.0625C8.55078 13.8516 8.6875 13.6445 8.89844 13.6016L12.1094 12.9609V11.8438C12.1094 9.97267 10.6992 8.33595 8.83594 8.21095C6.78906 8.07423 5.07812 9.69923 5.07812 11.7188V12.8906H5.85938V13.6719H5.07812C4.64844 13.6719 4.29688 13.3203 4.29688 12.8906V11.8438C4.29688 9.60938 5.95313 7.64845 8.17969 7.44141C10.7344 7.19923 12.8906 9.21095 12.8906 11.7188V12.9609C12.8906 13.332 12.6289 13.6524 12.2617 13.7266L9.05078 14.3672C8.83984 14.4102 8.63281 14.2734 8.58984 14.0625H8.59375Z" fill="#6096BA"/>
<path d="M8.59375 23.0469H7.8125V22.2656C7.8125 22.0508 7.63672 21.875 7.42188 21.875H4.6875C4.47266 21.875 4.29688 21.6992 4.29688 21.4844V19.9219C4.29688 19.8164 4.33984 19.7188 4.41016 19.6445L4.91406 19.1406C5.06641 18.9883 5.3125 18.9883 5.46484 19.1406C5.61719 19.293 5.61719 19.5391 5.46484 19.6914L5.07422 20.082V21.0938H7.41797C8.06641 21.0938 8.58984 21.6172 8.58984 22.2656V23.0469H8.59375Z" fill="#6096BA"/>
<path d="M21.0938 23.0469H1.5625V23.8281H21.0938V23.0469Z" fill="#A3CEF1"/>
<path d="M14.4531 4.08202L15.6523 3.68359C15.9336 3.58984 16.2422 3.66405 16.4531 3.87109L20.7422 8.16015C20.9531 8.37109 21.0234 8.67968 20.9297 8.96093L20.5312 10.1601L22.1875 11.8164L23.2187 10.1016C23.5859 9.48827 23.4922 8.69921 22.9844 8.1914L16.418 1.6289C15.9102 1.12109 15.125 1.02343 14.5078 1.39452L12.793 2.42577L14.4492 4.08202H14.4531Z" fill="#274C77"/>
<path d="M13.0703 5.46094C12.8477 5.23828 12.7266 4.94531 12.7266 4.63281C12.7266 4.32031 12.8477 4.02734 13.0703 3.80469L13.6211 4.35938C13.5469 4.43359 13.5078 4.53125 13.5078 4.63672C13.5078 4.74219 13.5469 4.83984 13.6211 4.91406L13.0703 5.46875V5.46094Z" fill="#A3CEF1"/>
<path d="M12.2422 6.29297C11.3281 5.37891 11.3281 3.89062 12.2422 2.97656L12.793 3.52734C12.1836 4.13672 12.1836 5.12891 12.793 5.73828L12.2422 6.28906V6.29297Z" fill="#A3CEF1"/>
<path d="M11.4141 7.12109C10.043 5.75 10.043 3.51953 11.4141 2.14844L11.9648 2.69922C10.8984 3.76562 10.8984 5.5 11.9648 6.56641L11.4141 7.11719V7.12109Z" fill="#A3CEF1"/>
<path d="M19.9766 11.8828C19.6758 11.8828 19.375 11.7695 19.1484 11.5391L19.6992 10.9844C19.8516 11.1367 20.0977 11.1367 20.2539 10.9844L20.8047 11.5391C20.5781 11.7656 20.2773 11.8828 19.9766 11.8828Z" fill="#A3CEF1"/>
<path d="M19.9766 13.0547C19.375 13.0547 18.7773 12.8281 18.3203 12.3711L18.8711 11.8203C19.4805 12.4297 20.4727 12.4297 21.082 11.8203L21.6328 12.3711C21.1758 12.8281 20.5742 13.0547 19.9766 13.0547Z" fill="#A3CEF1"/>
<path d="M19.9766 14.2266C19.0781 14.2266 18.1758 13.8828 17.4922 13.1992L18.043 12.6484C19.1094 13.7148 20.8438 13.7148 21.9102 12.6484L22.4609 13.1992C21.7773 13.8828 20.875 14.2266 19.9766 14.2266Z" fill="#A3CEF1"/>
</svg>
