<svg width="30" height="30" viewBox="0 0 30 30" fill="none" xmlns="http://www.w3.org/2000/svg">
<rect x="0.5" y="0.5" width="29" height="29" rx="14.5" fill="#F2EFF6"/>
<rect x="0.5" y="0.5" width="29" height="29" rx="14.5" stroke="#7978F8"/>
<path d="M20.9178 21H10.6422C10.4719 21 10.3085 20.9315 10.1881 20.8096C10.0677 20.6877 10 20.5224 10 20.35V8.65C10 8.47761 10.0677 8.31228 10.1881 8.19038C10.3085 8.06848 10.4719 8 10.6422 8H20.9178C21.0881 8 21.2515 8.06848 21.3719 8.19038C21.4923 8.31228 21.56 8.47761 21.56 8.65V20.35C21.56 20.5224 21.4923 20.6877 21.3719 20.8096C21.2515 20.9315 21.0881 21 20.9178 21ZM20.2756 19.7V9.3H11.2844V19.7H20.2756ZM13.2111 11.25H18.3489V12.55H13.2111V11.25ZM13.2111 13.85H18.3489V15.15H13.2111V13.85ZM13.2111 16.45H18.3489V17.75H13.2111V16.45Z" fill="#7978F8"/>
</svg>
