<svg width="30" height="30" viewBox="0 0 30 30" fill="none" xmlns="http://www.w3.org/2000/svg">
<rect x="0.5" y="0.5" width="29" height="29" rx="14.5" fill="#F2EFF6"/>
<rect x="0.5" y="0.5" width="29" height="29" rx="14.5" stroke="#7978F8"/>
<path d="M18.0878 8.20033C18.2019 8.07206 18.3567 8 18.518 8C18.6793 8 18.8341 8.07206 18.9482 8.20033L21.3819 10.9372C21.4959 11.0655 21.56 11.2395 21.56 11.4209C21.56 11.6024 21.4959 11.7764 21.3819 11.9047L13.4723 20.7995C13.3582 20.9278 13.2035 21 13.0421 21H10.6084C10.4471 21 10.2923 20.9279 10.1782 20.7996C10.0641 20.6713 10 20.4972 10 20.3158V17.5789C10 17.3975 10.0642 17.2235 10.1783 17.0952L16.2625 10.253L18.0878 8.20033ZM16.6927 11.7042L11.2169 17.8622V19.6316H12.7903L18.2661 13.4736L16.6927 11.7042ZM19.1264 12.5061L20.0914 11.4209L18.518 9.65156L17.553 10.7367L19.1264 12.5061Z" fill="#7978F8"/>
</svg>
