<svg width="30" height="30" viewBox="0 0 30 30" fill="none" xmlns="http://www.w3.org/2000/svg">
<rect x="0.5" y="0.5" width="29" height="29" rx="14.5" fill="#F2EFF6"/>
<rect x="0.5" y="0.5" width="29" height="29" rx="14.5" stroke="#7978F8"/>
<path d="M11.5762 8.5H19.9834C20.1484 8.5 20.4132 8.62098 20.6631 9.0625C20.9074 9.49431 21.0596 10.114 21.0596 10.7861V18.2139C21.0596 18.886 20.9074 19.5057 20.6631 19.9375C20.4132 20.379 20.1484 20.5 19.9834 20.5H11.5762C11.4112 20.4999 11.1462 20.3788 10.8965 19.9375C10.6523 19.5057 10.5 18.8859 10.5 18.2139V10.7861C10.5 10.1141 10.6523 9.4943 10.8965 9.0625C11.1462 8.62115 11.4112 8.50009 11.5762 8.5ZM11.5762 9.35742C11.1838 9.35751 10.9138 9.62781 10.7695 9.88281C10.6197 10.1476 10.5508 10.4733 10.5508 10.7861V18.2139C10.5508 18.5267 10.6197 18.8524 10.7695 19.1172C10.9138 19.3722 11.1838 19.6425 11.5762 19.6426H19.9834C20.3758 19.6426 20.6457 19.3722 20.79 19.1172C20.9399 18.8524 21.0088 18.5267 21.0088 18.2139V10.7861C21.0088 10.4733 20.9399 10.1476 20.79 9.88281C20.6457 9.62782 20.3758 9.35742 19.9834 9.35742H11.5762ZM15.7803 12.2139C15.9453 12.214 16.2103 12.3351 16.46 12.7764C16.7043 13.2082 16.8564 13.8278 16.8564 14.5C16.8564 14.998 16.7724 15.4761 16.623 15.8711C16.4718 16.271 16.2736 16.5339 16.0879 16.6699C15.9173 16.7948 15.7712 16.8072 15.6387 16.7607C15.484 16.7064 15.2842 16.548 15.1006 16.2236C14.9196 15.9038 14.7853 15.4748 14.7305 14.9873C14.6758 14.5015 14.7048 13.9989 14.8105 13.5479C14.9171 13.0934 15.0912 12.737 15.2861 12.5068C15.4796 12.2785 15.6555 12.2139 15.7803 12.2139ZM16.2764 13.2383C16.0899 13.1019 15.8551 13.0382 15.6152 13.0889L15.5117 13.1172C15.2589 13.2061 15.084 13.4018 14.9736 13.5967C14.8607 13.7963 14.7938 14.0297 14.7676 14.2627C14.7412 14.4973 14.7543 14.7422 14.8076 14.9697C14.8601 15.1937 14.956 15.4169 15.1064 15.5947C15.2586 15.7744 15.4894 15.9287 15.7803 15.9287C16.1725 15.9286 16.4426 15.6582 16.5869 15.4033C16.7367 15.1386 16.8057 14.8128 16.8057 14.5C16.8057 14.2635 16.7661 14.0234 16.6846 13.8076C16.6049 13.5969 16.4746 13.3834 16.2764 13.2383ZM12.627 14.2666C12.6423 14.3346 12.6523 14.4134 12.6523 14.5C12.6523 14.5833 12.6423 14.6614 12.627 14.7305C12.6198 14.6981 12.6127 14.6628 12.6084 14.625C12.5946 14.5024 12.6022 14.3765 12.627 14.2666ZM18.9326 14.2627C18.9484 14.3315 18.958 14.4119 18.958 14.5C18.958 14.583 18.9469 14.6606 18.9316 14.7295C18.9246 14.6974 18.9183 14.6624 18.9141 14.625C18.9001 14.501 18.9072 14.3735 18.9326 14.2627Z" fill="black" stroke="#7978F8"/>
</svg>
