<svg width="30" height="30" viewBox="0 0 30 30" fill="none" xmlns="http://www.w3.org/2000/svg">
<rect x="0.5" y="0.5" width="29" height="29" rx="14.5" fill="#F2EFF6"/>
<rect x="0.5" y="0.5" width="29" height="29" rx="14.5" stroke="#7978F8"/>
<path d="M13.1479 8.58227C13.1956 8.30989 13.0021 8.05228 12.7157 8.00688C12.4292 7.96149 12.1583 8.14549 12.1105 8.41787L10.0072 20.4177C9.95949 20.6901 10.153 20.9477 10.4395 20.9931C10.7259 21.0385 10.9968 20.8545 11.0446 20.5821L11.7492 16.5623C12.5971 16.6796 13.5124 16.7186 14.234 17.1999C14.6805 17.5049 15.1968 17.7046 15.7404 17.7827C16.7559 17.9285 17.6646 17.3975 18.6678 17.5489L20.0234 17.7429C20.2966 17.7821 20.5806 17.5827 20.6217 17.3229L21.5514 11.3889L21.5556 11.3849C21.5936 11.1246 21.3803 10.8568 21.1066 10.821L19.751 10.627C18.7384 10.4842 17.8279 10.9997 16.8247 10.8561C16.3747 10.7918 15.9466 10.6291 15.5738 10.381C14.7969 9.86382 13.8714 9.77812 12.9597 9.65598L13.1479 8.58227ZM12.5277 12.1204L12.8734 10.1485C13.5038 10.2296 14.1705 10.2769 14.7546 10.517L14.4446 12.4822C13.8447 12.2494 13.1685 12.2036 12.5277 12.1204ZM11.8357 16.0685L12.1816 14.0953C12.8338 14.1814 13.5248 14.224 14.1362 14.4629L14.4514 12.4867C15.1433 12.7561 15.6704 13.2194 16.4425 13.3279L16.758 11.3479C17.5341 11.4594 18.1762 11.1713 18.9223 11.1139L18.6068 13.0799C17.86 13.1405 17.2139 13.4405 16.4404 13.3299L16.1396 15.3077C15.3654 15.1986 14.8376 14.7328 14.1425 14.4639L13.827 16.4399C13.2015 16.2014 12.4992 16.1587 11.8357 16.0685ZM16.1406 15.308C16.9124 15.4193 17.5615 15.117 18.3081 15.0579L18.6068 13.0799C19.2951 13.0196 19.9999 13.1913 20.6764 13.2889L20.382 15.2649C19.7044 15.1678 18.9983 14.9961 18.3092 15.0579L17.9937 17.0339C17.2484 17.0816 16.5896 17.3942 15.8252 17.2839L16.1406 15.308Z" fill="#7978F8"/>
</svg>
