<svg width="30" height="30" viewBox="0 0 30 30" fill="none" xmlns="http://www.w3.org/2000/svg">
<rect x="0.5" y="0.5" width="29" height="29" rx="14.5" fill="#F2EFF6"/>
<rect x="0.5" y="0.5" width="29" height="29" rx="14.5" stroke="#7978F8"/>
<path d="M15.4076 16.4296C15.7874 16.5986 16.1342 16.8233 16.4464 17.1028C16.7585 17.3814 17.0252 17.7064 17.2473 18.0741C17.7003 18.8161 17.9443 19.6942 17.9475 20.5942V21H17.225V20.5933C17.2266 20.113 17.143 19.6373 16.9793 19.1937C16.8155 18.7502 16.5749 18.3478 16.2713 18.01C15.9734 17.6797 15.623 17.4151 15.2383 17.23C14.8386 17.0374 14.4083 16.9379 13.9733 16.9375C13.5463 16.9358 13.1232 17.0297 12.7288 17.2138C12.3344 17.398 11.9766 17.6686 11.6762 18.01C11.3826 18.3451 11.1473 18.7391 10.9826 19.1716C10.8125 19.6118 10.7266 20.0863 10.7225 20.5933V21H10V20.5933C9.9979 19.6926 10.2424 18.8131 10.7002 18.0741C11.1563 17.3342 11.7966 16.7624 12.5407 16.4305C12.3717 16.2999 12.2177 16.1461 12.0825 15.9727C11.9488 15.802 11.8332 15.6144 11.7381 15.4137C11.6434 15.2132 11.5713 15.0001 11.5235 14.7795C11.4747 14.5548 11.4484 14.3246 11.445 14.0933C11.445 13.7005 11.5111 13.3319 11.6432 12.9892C11.9015 12.3104 12.3823 11.7694 12.9858 11.4784C13.2971 11.3294 13.6319 11.252 13.9703 11.2509C14.3087 11.2498 14.6438 11.3249 14.9559 11.4719C15.5598 11.7627 16.0409 12.3037 16.2994 12.9827C16.5132 13.5481 16.5587 14.1761 16.429 14.773C16.3795 14.9931 16.3068 15.2048 16.2094 15.4081C16.1126 15.6094 15.9972 15.7987 15.8651 15.9727C15.7329 16.1464 15.5802 16.2977 15.4076 16.4296ZM13.9733 16.125C14.2219 16.125 14.4556 16.0721 14.6736 15.9671C15.1058 15.7606 15.4498 15.3734 15.633 14.8872C15.7313 14.6374 15.78 14.3728 15.78 14.0942C15.7811 13.8283 15.7346 13.5649 15.6434 13.3196C15.5522 13.0742 15.4181 12.852 15.2491 12.6661C15.0819 12.4827 14.887 12.3343 14.6736 12.2278C14.4533 12.1172 14.2146 12.0608 13.9733 12.0625C13.7256 12.0625 13.492 12.1154 13.274 12.2204C12.8394 12.4288 12.4932 12.8181 12.3079 13.3068C12.2146 13.5519 12.1675 13.8147 12.1675 14.0942C12.1675 14.3728 12.2146 14.6356 12.3079 14.8807C12.4028 15.1259 12.5308 15.3422 12.6927 15.5279C12.8602 15.7183 13.0599 15.8692 13.2799 15.9717C13.5 16.0742 13.736 16.1264 13.9742 16.125H13.9733ZM21.56 8V14.5H20.115L17.9475 16.9375V14.5H17.225V13.6875H18.67V14.9764L19.8161 13.6875H20.8375V8.8125H13.6125V10.2722C13.4914 10.2894 13.3708 10.3108 13.2508 10.3363C13.1279 10.3625 13.0071 10.4008 12.89 10.4505V8H21.56Z" fill="#7978F8"/>
</svg>
