<svg width="30" height="30" viewBox="0 0 30 30" fill="none" xmlns="http://www.w3.org/2000/svg">
<rect x="0.5" y="0.5" width="29" height="29" rx="14.5" fill="#F2EFF6"/>
<rect x="0.5" y="0.5" width="29" height="29" rx="14.5" stroke="#7978F8"/>
<path d="M19.826 10.7368H18.092V10.0526C18.092 9.50824 17.9093 8.98615 17.5841 8.6012C17.2589 8.21626 16.8179 8 16.358 8H15.202C14.7421 8 14.3011 8.21626 13.9759 8.6012C13.6507 8.98615 13.468 9.50824 13.468 10.0526V10.7368H11.734C11.2741 10.7368 10.8331 10.9531 10.5079 11.338C10.1827 11.723 10 12.2451 10 12.7895V18.9474C10 19.4918 10.1827 20.0139 10.5079 20.3988C10.8331 20.7837 11.2741 21 11.734 21H19.826C20.2859 21 20.7269 20.7837 21.0521 20.3988C21.3773 20.0139 21.56 19.4918 21.56 18.9474V12.7895C21.56 12.2451 21.3773 11.723 21.0521 11.338C20.7269 10.9531 20.2859 10.7368 19.826 10.7368ZM14.624 10.0526C14.624 9.87117 14.6849 9.69714 14.7933 9.56882C14.9017 9.44051 15.0487 9.36842 15.202 9.36842H16.358C16.5113 9.36842 16.6583 9.44051 16.7667 9.56882C16.8751 9.69714 16.936 9.87117 16.936 10.0526V10.7368H14.624V10.0526ZM20.404 18.9474C20.404 19.1288 20.3431 19.3029 20.2347 19.4312C20.1263 19.5595 19.9793 19.6316 19.826 19.6316H11.734C11.5807 19.6316 11.4337 19.5595 11.3253 19.4312C11.2169 19.3029 11.156 19.1288 11.156 18.9474V15.1842C12.6277 15.8754 14.1967 16.2306 15.78 16.2311C17.3633 16.2299 18.9321 15.8747 20.404 15.1842V18.9474ZM20.404 13.6858C18.9465 14.4437 17.3719 14.8351 15.78 14.8351C14.1881 14.8351 12.6135 14.4437 11.156 13.6858V12.7895C11.156 12.608 11.2169 12.434 11.3253 12.3057C11.4337 12.1773 11.5807 12.1053 11.734 12.1053H19.826C19.9793 12.1053 20.1263 12.1773 20.2347 12.3057C20.3431 12.434 20.404 12.608 20.404 12.7895V13.6858Z" fill="#7978F8"/>
</svg>
