<svg width="30" height="30" viewBox="0 0 30 30" fill="none" xmlns="http://www.w3.org/2000/svg">
<rect x="0.5" y="0.5" width="29" height="29" rx="14.5" fill="#F2EFF6"/>
<rect x="0.5" y="0.5" width="29" height="29" rx="14.5" stroke="#7978F8"/>
<path d="M13 17L17 13" stroke="#7978F8" stroke-linecap="round" stroke-linejoin="round"/>
<path d="M13.5 14C13.7761 14 14 13.7761 14 13.5C14 13.2239 13.7761 13 13.5 13C13.2239 13 13 13.2239 13 13.5C13 13.7761 13.2239 14 13.5 14Z" fill="#7978F8" stroke="#7978F8" stroke-linecap="round" stroke-linejoin="round"/>
<path d="M16.5 17C16.7761 17 17 16.7761 17 16.5C17 16.2239 16.7761 16 16.5 16C16.2239 16 16 16.2239 16 16.5C16 16.7761 16.2239 17 16.5 17Z" fill="#7978F8" stroke="#7978F8" stroke-linecap="round" stroke-linejoin="round"/>
<path d="M10.326 11.0256C10.326 10.6042 10.4806 10.2 10.7557 9.90195C11.0307 9.60394 11.4038 9.43651 11.7929 9.43651H12.4596C12.847 9.43627 13.2185 9.27009 13.4931 8.97423L13.9599 8.4686C14.0962 8.32009 14.2582 8.20224 14.4367 8.12182C14.6153 8.0414 14.8067 8 15 8C15.1933 8 15.3847 8.0414 15.5633 8.12182C15.7418 8.20224 15.9038 8.32009 16.0401 8.4686L16.5069 8.97423C16.7815 9.27009 17.153 9.43627 17.5404 9.43651H18.2071C18.5962 9.43651 18.9693 9.60394 19.2443 9.90195C19.5194 10.2 19.674 10.6042 19.674 11.0256V11.7479C19.6742 12.1675 19.8276 12.57 20.1007 12.8675L20.5674 13.3732C20.7045 13.5209 20.8133 13.6964 20.8875 13.8898C20.9618 14.0832 21 14.2906 21 14.5C21 14.7094 20.9618 14.9168 20.8875 15.1102C20.8133 15.3036 20.7045 15.4791 20.5674 15.6268L20.1007 16.1325C19.8276 16.43 19.6742 16.8325 19.674 17.2521V17.9744C19.674 18.3958 19.5194 18.8 19.2443 19.098C18.9693 19.3961 18.5962 19.5635 18.2071 19.5635H17.5404C17.153 19.5637 16.7815 19.7299 16.5069 20.0258L16.0401 20.5314C15.9038 20.6799 15.7418 20.7978 15.5633 20.8782C15.3847 20.9586 15.1933 21 15 21C14.8067 21 14.6153 20.9586 14.4367 20.8782C14.2582 20.7978 14.0962 20.6799 13.9599 20.5314L13.4931 20.0258C13.2185 19.7299 12.847 19.5637 12.4596 19.5635H11.7929C11.4038 19.5635 11.0307 19.3961 10.7557 19.098C10.4806 18.8 10.326 18.3958 10.326 17.9744V17.2521C10.3258 16.8325 10.1724 16.43 9.89929 16.1325L9.43256 15.6268C9.29547 15.4791 9.18668 15.3036 9.11245 15.1102C9.03822 14.9168 9 14.7094 9 14.5C9 14.2906 9.03822 14.0832 9.11245 13.8898C9.18668 13.6964 9.29547 13.5209 9.43256 13.3732L9.89929 12.8675C10.1724 12.57 10.3258 12.1675 10.326 11.7479V11.0256Z" stroke="#7978F8" stroke-width="2" stroke-linecap="round" stroke-linejoin="round"/>
</svg>
