<svg width="30" height="30" viewBox="0 0 30 30" fill="none" xmlns="http://www.w3.org/2000/svg">
<rect x="0.5" y="0.5" width="29" height="29" rx="14.5" fill="#F2EFF6"/>
<rect x="0.5" y="0.5" width="29" height="29" rx="14.5" stroke="#7978F8"/>
<path d="M15.1377 17.1483C15.1377 17.3398 15.2054 17.5235 15.3258 17.659C15.4462 17.7944 15.6096 17.8705 15.7799 17.8705C15.9502 17.8705 16.1136 17.7944 16.234 17.659C16.3545 17.5235 16.4221 17.3398 16.4221 17.1483C16.4221 16.9567 16.3545 16.773 16.234 16.6376C16.1136 16.5022 15.9502 16.4261 15.7799 16.4261C15.6096 16.4261 15.4462 16.5022 15.3258 16.6376C15.2054 16.773 15.1377 16.9567 15.1377 17.1483ZM16.101 15.4632C16.1599 15.4632 16.2081 15.409 16.2081 15.3428V11.2503C16.2081 11.1841 16.1599 11.13 16.101 11.13H15.4588C15.3999 11.13 15.3518 11.1841 15.3518 11.2503V15.3428C15.3518 15.409 15.3999 15.4632 15.4588 15.4632H16.101ZM21.4528 12.6345H20.6594C20.6246 12.6345 20.5925 12.6526 20.5724 12.6842L19.1475 14.8929L18.4799 13.8578C18.47 13.8423 18.4569 13.8297 18.4418 13.821C18.4267 13.8124 18.4099 13.808 18.3929 13.8081H17.5995C17.5126 13.8081 17.4617 13.9195 17.5126 13.9992L18.9736 16.2666C18.9936 16.2974 19.0198 16.3224 19.05 16.3397C19.0802 16.3569 19.1136 16.3659 19.1475 16.3659C19.1814 16.3659 19.2148 16.3569 19.2451 16.3397C19.2753 16.3224 19.3015 16.2974 19.3215 16.2666L21.5398 12.8256C21.5906 12.7459 21.5398 12.6345 21.4528 12.6345ZM20.8641 17.2386H20.0051C19.9316 17.2386 19.8633 17.2822 19.8232 17.3514C19.6333 17.6907 19.4098 18.0046 19.1569 18.2872C18.7222 18.7764 18.2075 19.1662 17.641 19.4352C17.0537 19.7138 16.4226 19.8565 15.7853 19.855C15.1417 19.855 14.5169 19.7136 13.9295 19.4352C13.3631 19.1662 12.8483 18.7764 12.4137 18.2872C11.9776 17.7997 11.6304 17.2212 11.3915 16.5841C11.1426 15.9251 11.0168 15.2224 11.0168 14.5002C11.0168 13.778 11.1426 13.0754 11.3915 12.4164C11.631 11.7784 11.9748 11.2052 12.4137 10.7132C12.8525 10.2212 13.3623 9.83453 13.9295 9.56521C14.5168 9.28668 15.1479 9.14392 15.7853 9.14543C16.4288 9.14543 17.0536 9.28686 17.641 9.56521C18.2083 9.83453 18.718 10.2212 19.1569 10.7132C19.4111 10.9991 19.6332 11.312 19.8232 11.649C19.862 11.7198 19.9316 11.7619 20.0051 11.7619H20.8641C20.9444 11.7619 20.9952 11.6671 20.9604 11.5874C20.0185 9.48246 18.0905 8.03054 15.8562 8.00045C12.6612 7.95832 10.0067 10.8968 10 14.4882C9.99332 18.0826 12.5863 21 15.7853 21C18.0491 21 20.0078 19.5406 20.9591 17.4131C20.9673 17.3948 20.9712 17.3744 20.9705 17.354C20.9697 17.3335 20.9643 17.3136 20.9548 17.2961C20.9453 17.2786 20.932 17.2641 20.9161 17.2541C20.9002 17.244 20.8823 17.2387 20.8641 17.2386Z" fill="#7978F8"/>
</svg>
