<svg width="25" height="25" viewBox="0 0 25 25" fill="none" xmlns="http://www.w3.org/2000/svg">
<g clip-path="url(#clip0_244_1729)">
<path d="M12.5 25C19.4036 25 25 19.4036 25 12.5C25 5.59644 19.4036 0 12.5 0C5.59644 0 0 5.59644 0 12.5C0 19.4036 5.59644 25 12.5 25Z" fill="#84DBFF"/>
<path d="M10.6152 19.6677L6.46338 17.505V7.75793L10.6152 9.92559V19.6677Z" fill="#FFD05B"/>
<path d="M19.3451 19.6677L15.1934 17.505V7.75793L19.3451 9.92559V19.6677Z" fill="#FFD05B"/>
<path d="M15.1936 17.5L10.6152 19.6677V9.92559L15.1936 7.75793V17.5Z" fill="#F9B54C"/>
<path d="M8.20952 4.79166C6.51805 4.79166 5.14404 6.16566 5.14404 7.86209C5.14404 9.55356 6.98432 11.1161 8.20952 14.4196C9.43472 11.1111 11.275 9.55356 11.275 7.86209C11.275 6.17062 9.90099 4.79662 8.20952 4.79166Z" fill="#FF7058"/>
<path d="M8.20949 9.90079C9.34912 9.90079 10.273 8.97693 10.273 7.8373C10.273 6.69766 9.34912 5.7738 8.20949 5.7738C7.06985 5.7738 6.146 6.69766 6.146 7.8373C6.146 8.97693 7.06985 9.90079 8.20949 9.90079Z" fill="#324A5E"/>
</g>
<defs>
<clipPath id="clip0_244_1729">
<rect width="25" height="25" fill="white"/>
</clipPath>
</defs>
</svg>
