<svg width="25" height="25" viewBox="0 0 25 25" fill="none" xmlns="http://www.w3.org/2000/svg">
<g clip-path="url(#clip0_244_1702)">
<path d="M23.1278 17.6861H18.8889C18.7762 17.6876 18.6642 17.6666 18.5596 17.6244C18.455 17.5821 18.3599 17.5195 18.2797 17.4401C18.1996 17.3608 18.136 17.2662 18.0928 17.1621C18.0495 17.0579 18.0275 16.9461 18.0278 16.8333V14.2778C18.0275 14.165 18.0495 14.0532 18.0928 13.9491C18.136 13.8449 18.1996 13.7503 18.2797 13.671C18.3599 13.5916 18.455 13.529 18.5596 13.4867C18.6642 13.4445 18.7762 13.4235 18.8889 13.425H23.1389C23.2508 13.425 23.3616 13.4471 23.4649 13.49C23.5682 13.5329 23.662 13.5957 23.741 13.6749C23.8199 13.7542 23.8825 13.8482 23.925 13.9516C23.9676 14.0551 23.9893 14.1659 23.9889 14.2778V16.8333C23.9893 16.9461 23.9672 17.0579 23.924 17.1621C23.8808 17.2662 23.8172 17.3608 23.7371 17.4401C23.6569 17.5195 23.5618 17.5821 23.4572 17.6244C23.3526 17.6666 23.2406 17.6876 23.1278 17.6861Z" fill="#94D5D2"/>
<path d="M18.8886 17.6861C18.7758 17.6876 18.6639 17.6666 18.5593 17.6244C18.4547 17.5821 18.3596 17.5195 18.2794 17.4401C18.1993 17.3608 18.1357 17.2662 18.0925 17.162C18.0492 17.0579 18.0271 16.9461 18.0275 16.8333V14.2778C18.0271 14.165 18.0492 14.0532 18.0925 13.949C18.1357 13.8449 18.1993 13.7503 18.2794 13.671C18.3596 13.5916 18.4547 13.529 18.5593 13.4867C18.6639 13.4445 18.7758 13.4235 18.8886 13.425H23.1386V8.31388C23.1386 7.86276 22.9596 7.43007 22.6409 7.11082C22.3222 6.79156 21.8898 6.61184 21.4386 6.6111H2.72197C2.27085 6.61037 1.83845 6.43064 1.51972 6.11139C1.20099 5.79214 1.02197 5.35945 1.02197 4.90833V22.7972C1.02197 23.2483 1.20099 23.681 1.51972 24.0003C1.83845 24.3195 2.27085 24.4993 2.72197 24.5H21.4275C21.8786 24.4993 22.311 24.3195 22.6298 24.0003C22.9485 23.681 23.1275 23.2483 23.1275 22.7972V17.6861H18.8886Z" fill="#FF8898"/>
<path d="M21.4275 6.61109H2.72197C2.27085 6.61036 1.83846 6.43063 1.51972 6.11138C1.20099 5.79213 1.02197 5.35944 1.02197 4.90831C1.02161 4.6847 1.06529 4.46321 1.15053 4.25648C1.23576 4.04975 1.36088 3.86183 1.51874 3.70345C1.6766 3.54508 1.86411 3.41935 2.07056 3.33344C2.27701 3.24753 2.49836 3.20312 2.72197 3.20276H19.722C20.1731 3.20349 20.6055 3.38322 20.9242 3.70247C21.243 4.02172 21.422 4.45441 21.422 4.90554L21.4275 6.61109Z" fill="#E07885"/>
<path d="M15.3385 0.561096H4.35791V6.4361H15.3385V0.561096Z" fill="#FFEB97"/>
<path d="M19.5747 4.90833H8.32471V6.43888H19.5747V4.90833Z" fill="white"/>
<path d="M23.1275 18.1861H18.8886C18.5303 18.1854 18.1869 18.0425 17.9338 17.7889C17.6807 17.5353 17.5386 17.1916 17.5386 16.8333V14.2778C17.5386 13.9195 17.6807 13.5758 17.9338 13.3222C18.1869 13.0686 18.5303 12.9257 18.8886 12.925H23.1386C23.4969 12.9257 23.8402 13.0686 24.0933 13.3222C24.3464 13.5758 24.4886 13.9195 24.4886 14.2778V16.8333C24.4886 17.0117 24.4533 17.1883 24.3848 17.3529C24.3163 17.5176 24.2159 17.6671 24.0894 17.7928C23.9629 17.9186 23.8128 18.018 23.6477 18.0855C23.4826 18.153 23.3058 18.1872 23.1275 18.1861ZM18.8886 13.925C18.7955 13.9257 18.7065 13.9632 18.6409 14.0293C18.5754 14.0954 18.5386 14.1847 18.5386 14.2778V16.8333C18.5386 16.9264 18.5754 17.0157 18.6409 17.0818C18.7065 17.1479 18.7955 17.1854 18.8886 17.1861H23.1386C23.2317 17.1854 23.3207 17.1479 23.3862 17.0818C23.4518 17.0157 23.4886 16.9264 23.4886 16.8333V14.2778C23.4886 14.1847 23.4518 14.0954 23.3862 14.0293C23.3207 13.9632 23.2317 13.9257 23.1386 13.925H18.8886Z" fill="#576065"/>
<path d="M21.4275 25H2.72197C2.13847 24.9985 1.57932 24.7659 1.16698 24.353C0.754638 23.9402 0.522706 23.3807 0.521973 22.7972V4.90833C0.521973 4.77572 0.574651 4.64854 0.668419 4.55477C0.762187 4.461 0.889364 4.40833 1.02197 4.40833C1.15458 4.40833 1.28176 4.461 1.37553 4.55477C1.46929 4.64854 1.52197 4.77572 1.52197 4.90833C1.52197 5.22684 1.64831 5.53235 1.87328 5.75784C2.09824 5.98332 2.40346 6.11037 2.72197 6.1111H21.4275C22.011 6.11257 22.5702 6.34521 22.9825 6.75807C23.3949 7.17093 23.6268 7.73037 23.6275 8.31388V13.425C23.6275 13.5576 23.5749 13.6848 23.4811 13.7785C23.3873 13.8723 23.2601 13.925 23.1275 13.925H18.8886C18.7956 13.9257 18.7065 13.9632 18.641 14.0293C18.5754 14.0954 18.5386 14.1847 18.5386 14.2778V16.8333C18.5386 16.9264 18.5754 17.0157 18.641 17.0818C18.7065 17.1479 18.7956 17.1854 18.8886 17.1861H23.1386C23.2712 17.1861 23.3984 17.2388 23.4922 17.3326C23.586 17.4263 23.6386 17.5535 23.6386 17.6861V22.7972C23.6383 23.0871 23.5808 23.374 23.4694 23.6417C23.3581 23.9093 23.1951 24.1524 22.9897 24.3569C22.7843 24.5615 22.5407 24.7236 22.2726 24.834C22.0046 24.9443 21.7174 25.0007 21.4275 25ZM1.52197 6.75277V22.7972C1.52197 23.1157 1.64831 23.4212 1.87328 23.6467C2.09824 23.8722 2.40346 23.9993 2.72197 24H21.4275C21.746 23.9993 22.0513 23.8722 22.2762 23.6467C22.5012 23.4212 22.6275 23.1157 22.6275 22.7972V18.1861H18.8886C18.5303 18.1854 18.187 18.0425 17.9339 17.7889C17.6808 17.5353 17.5386 17.1916 17.5386 16.8333V14.2778C17.5386 13.9195 17.6808 13.5758 17.9339 13.3222C18.187 13.0686 18.5303 12.9257 18.8886 12.925H22.6386V8.31388C22.6386 7.99537 22.5123 7.68985 22.2873 7.46437C22.0624 7.23888 21.7572 7.11184 21.4386 7.1111H2.72197C2.29559 7.11124 1.87847 6.98668 1.52197 6.75277Z" fill="#576065"/>
<path d="M21.4278 7.11115H2.72223C2.13765 7.11115 1.57701 6.87893 1.16365 6.46557C0.750291 6.05221 0.518066 5.49157 0.518066 4.90699C0.518066 4.32241 0.750291 3.76177 1.16365 3.34841C1.57701 2.93504 2.13765 2.70282 2.72223 2.70282H4.35834C4.49095 2.70282 4.61813 2.7555 4.7119 2.84927C4.80567 2.94303 4.85834 3.07021 4.85834 3.20282C4.85834 3.33543 4.80567 3.46261 4.7119 3.55637C4.61813 3.65014 4.49095 3.70282 4.35834 3.70282H2.72223C2.40287 3.70282 2.09658 3.82969 1.87076 4.05551C1.64493 4.28134 1.51807 4.58762 1.51807 4.90699C1.51807 5.22635 1.64493 5.53264 1.87076 5.75846C2.09658 5.98429 2.40287 6.11115 2.72223 6.11115H20.9278V4.90838C20.9282 4.74996 20.8972 4.59303 20.8368 4.4466C20.7763 4.30017 20.6875 4.16712 20.5755 4.0551C20.4635 3.94308 20.3304 3.8543 20.184 3.79384C20.0376 3.73339 19.8807 3.70245 19.7222 3.70282H15.3389C15.2063 3.70282 15.0791 3.65014 14.9853 3.55637C14.8916 3.46261 14.8389 3.33543 14.8389 3.20282C14.8389 3.07021 14.8916 2.94303 14.9853 2.84927C15.0791 2.7555 15.2063 2.70282 15.3389 2.70282H19.7222C20.3057 2.70429 20.8649 2.93693 21.2772 3.34979C21.6896 3.76265 21.9215 4.32209 21.9222 4.9056V6.61115C21.9222 6.74281 21.8703 6.86915 21.7778 6.96276C21.6852 7.05637 21.5594 7.10969 21.4278 7.11115Z" fill="#576065"/>
<path d="M20.1525 16.4806C19.9696 16.4806 19.7908 16.4263 19.6386 16.3247C19.4865 16.223 19.368 16.0786 19.298 15.9095C19.2279 15.7405 19.2096 15.5545 19.2453 15.3751C19.281 15.1957 19.3691 15.0308 19.4985 14.9015C19.6278 14.7721 19.7927 14.684 19.9721 14.6483C20.1515 14.6126 20.3375 14.631 20.5065 14.701C20.6755 14.771 20.82 14.8895 20.9216 15.0417C21.0233 15.1938 21.0775 15.3726 21.0775 15.5556C21.0768 15.8007 20.9791 16.0355 20.8058 16.2088C20.6325 16.3821 20.3976 16.4798 20.1525 16.4806ZM20.1525 15.4806C20.1326 15.4806 20.1136 15.4885 20.0995 15.5025C20.0854 15.5166 20.0775 15.5357 20.0775 15.5556C20.0775 15.6361 20.2275 15.6361 20.2275 15.5556C20.2275 15.5457 20.2256 15.536 20.2218 15.5269C20.2181 15.5178 20.2125 15.5095 20.2056 15.5025C20.1986 15.4956 20.1903 15.49 20.1812 15.4863C20.1721 15.4825 20.1624 15.4806 20.1525 15.4806Z" fill="#576065"/>
<path d="M4.85791 6.625H3.85791V1.23333C3.85791 0.906233 3.98785 0.59253 4.21915 0.361235C4.45044 0.12994 4.76414 0 5.09124 0L14.6051 0C14.9313 0.0014691 15.2435 0.132057 15.4736 0.363193C15.7037 0.594329 15.8329 0.907193 15.8329 1.23333V5.04722H14.8329V1.23333C14.8329 1.17193 14.8087 1.113 14.7656 1.06932C14.7224 1.02564 14.6638 1.00073 14.6024 1H5.09124C5.02984 1.00073 4.9712 1.02564 4.92804 1.06932C4.88489 1.113 4.86068 1.17193 4.86069 1.23333L4.85791 6.625Z" fill="#576065"/>
<path d="M19.722 9.31389C19.6906 9.31629 19.659 9.31629 19.6276 9.31389C19.5947 9.30883 19.5628 9.29851 19.5332 9.28334C19.5021 9.27368 19.4729 9.25864 19.447 9.23889C19.4201 9.22099 19.395 9.20053 19.372 9.17778C19.3243 9.13167 19.2864 9.07643 19.2605 9.01534C19.2345 8.95426 19.2212 8.88858 19.2212 8.82223C19.2212 8.75587 19.2345 8.69019 19.2605 8.62911C19.2864 8.56802 19.3243 8.51278 19.372 8.46667C19.395 8.44392 19.4201 8.42346 19.447 8.40556C19.4729 8.38581 19.5021 8.37077 19.5332 8.36112C19.5627 8.34571 19.5946 8.33538 19.6276 8.33056C19.6915 8.31543 19.7581 8.31543 19.822 8.33056C19.8549 8.33601 19.8867 8.34631 19.9165 8.36112C19.9471 8.37187 19.9761 8.38682 20.0026 8.40556L20.0776 8.46667C20.1706 8.56167 20.2226 8.6893 20.2226 8.82223C20.2226 8.95515 20.1706 9.08279 20.0776 9.17778L20.0026 9.23889C19.9761 9.25763 19.9471 9.27259 19.9165 9.28334C19.8866 9.29792 19.8548 9.30821 19.822 9.31389C19.7888 9.31656 19.7553 9.31656 19.722 9.31389Z" fill="white"/>
<path d="M17.2055 8.81391C17.2055 8.6813 17.2582 8.55413 17.352 8.46036C17.4457 8.36659 17.5729 8.31391 17.7055 8.31391C17.7716 8.31355 17.837 8.32619 17.8982 8.35112C17.9593 8.37605 18.0149 8.41278 18.0619 8.45921C18.1088 8.50564 18.1462 8.56086 18.1718 8.62172C18.1974 8.68258 18.2107 8.74789 18.2111 8.81391C18.2107 8.87994 18.1974 8.94525 18.1718 9.00611C18.1462 9.06697 18.1088 9.12219 18.0619 9.16862C18.0149 9.21505 17.9593 9.25178 17.8982 9.27671C17.837 9.30163 17.7716 9.31428 17.7055 9.31391C17.5729 9.31391 17.4457 9.26123 17.352 9.16747C17.2582 9.0737 17.2055 8.94652 17.2055 8.81391ZM15.1916 8.81391C15.1913 8.74815 15.204 8.68296 15.229 8.62213C15.254 8.56131 15.2908 8.50604 15.3373 8.45954C15.3838 8.41303 15.439 8.37622 15.4999 8.35122C15.5607 8.32622 15.6259 8.31354 15.6916 8.31391C15.824 8.31464 15.9508 8.36755 16.0444 8.46116C16.138 8.55477 16.1909 8.68153 16.1916 8.81391C16.1909 8.94629 16.138 9.07305 16.0444 9.16666C15.9508 9.26027 15.824 9.31318 15.6916 9.31391C15.6256 9.31465 15.5602 9.30224 15.499 9.27741C15.4379 9.25258 15.3823 9.21582 15.3355 9.16928C15.2887 9.12274 15.2516 9.06735 15.2264 9.00634C15.2013 8.94532 15.1885 8.87991 15.1889 8.81391H15.1916ZM13.1722 8.81391C13.1718 8.74815 13.1845 8.68296 13.2095 8.62213C13.2345 8.56131 13.2713 8.50604 13.3178 8.45954C13.3643 8.41303 13.4196 8.37622 13.4804 8.35122C13.5413 8.32622 13.6064 8.31354 13.6722 8.31391C13.8046 8.31464 13.9313 8.36755 14.0249 8.46116C14.1186 8.55477 14.1715 8.68153 14.1722 8.81391C14.1715 8.94629 14.1186 9.07305 14.0249 9.16666C13.9313 9.26027 13.8046 9.31318 13.6722 9.31391C13.6062 9.31465 13.5407 9.30224 13.4796 9.27741C13.4184 9.25258 13.3628 9.21582 13.316 9.16928C13.2692 9.12274 13.2322 9.06735 13.207 9.00634C13.1818 8.94532 13.1691 8.87991 13.1694 8.81391H13.1722ZM11.1528 8.81391C11.1535 8.68153 11.2064 8.55477 11.3 8.46116C11.3936 8.36755 11.5204 8.31464 11.6528 8.31391C11.7851 8.31464 11.9119 8.36755 12.0055 8.46116C12.0991 8.55477 12.152 8.68153 12.1528 8.81391C12.152 8.94629 12.0991 9.07305 12.0055 9.16666C11.9119 9.26027 11.7851 9.31318 11.6528 9.31391C11.5199 9.31391 11.3924 9.26132 11.2982 9.16763C11.204 9.07395 11.1507 8.94677 11.15 8.81391H11.1528ZM9.13331 8.81391C9.13404 8.68153 9.18695 8.55477 9.28056 8.46116C9.37418 8.36755 9.50093 8.31464 9.63331 8.31391C9.7657 8.31464 9.89245 8.36755 9.98606 8.46116C10.0797 8.55477 10.1326 8.68153 10.1333 8.81391C10.1326 8.94629 10.0797 9.07305 9.98606 9.16666C9.89245 9.26027 9.7657 9.31318 9.63331 9.31391C9.50045 9.31391 9.37298 9.26132 9.27877 9.16763C9.18456 9.07395 9.13127 8.94677 9.13053 8.81391H9.13331ZM7.11387 8.81391C7.1146 8.68153 7.16751 8.55477 7.26112 8.46116C7.35473 8.36755 7.48148 8.31464 7.61387 8.31391C7.74625 8.31464 7.873 8.36755 7.96661 8.46116C8.06023 8.55477 8.11314 8.68153 8.11387 8.81391C8.11314 8.94629 8.06023 9.07305 7.96661 9.16666C7.873 9.26027 7.74625 9.31318 7.61387 9.31391C7.481 9.31391 7.35354 9.26132 7.25933 9.16763C7.16512 9.07395 7.11182 8.94677 7.11109 8.81391H7.11387ZM5.09442 8.81391C5.09515 8.68153 5.14806 8.55477 5.24168 8.46116C5.33529 8.36755 5.46204 8.31464 5.59442 8.31391C5.72681 8.31464 5.85356 8.36755 5.94717 8.46116C6.04078 8.55477 6.09369 8.68153 6.09442 8.81391C6.09369 8.94629 6.04078 9.07305 5.94717 9.16666C5.85356 9.26027 5.72681 9.31318 5.59442 9.31391C5.5284 9.31428 5.46295 9.30163 5.40181 9.27671C5.34067 9.25178 5.28504 9.21505 5.23809 9.16862C5.19114 9.12219 5.1538 9.06697 5.1282 9.00611C5.1026 8.94525 5.08923 8.87994 5.08887 8.81391H5.09442Z" fill="white"/>
<path d="M3.57483 9.31383C3.47536 9.31463 3.37791 9.28575 3.29494 9.23086C3.21197 9.17598 3.14726 9.09759 3.10909 9.00573C3.07091 8.91387 3.061 8.81271 3.08063 8.71519C3.10026 8.61767 3.14853 8.52822 3.21928 8.45828C3.31498 8.36884 3.44107 8.31909 3.57206 8.31909C3.70304 8.31909 3.82913 8.36884 3.92483 8.45828C3.99523 8.52788 4.04339 8.61682 4.06319 8.71382C4.08299 8.81082 4.07355 8.91152 4.03607 9.00315C3.99858 9.09478 3.93474 9.17322 3.85263 9.22853C3.77052 9.28384 3.67383 9.31353 3.57483 9.31383Z" fill="white"/>
<path d="M19.2246 22.7944C19.2246 22.6618 19.2773 22.5347 19.3711 22.4409C19.4648 22.3471 19.592 22.2944 19.7246 22.2944C19.7904 22.2941 19.8556 22.3068 19.9164 22.3318C19.9772 22.3567 20.0325 22.3936 20.079 22.4401C20.1255 22.4866 20.1623 22.5418 20.1873 22.6027C20.2123 22.6635 20.225 22.7287 20.2246 22.7944C20.2254 22.8603 20.2129 22.9257 20.1881 22.9867C20.1632 23.0477 20.1264 23.1031 20.0798 23.1497C20.0333 23.1962 19.9778 23.233 19.9168 23.2579C19.8558 23.2828 19.7905 23.2952 19.7246 23.2944C19.6589 23.2948 19.5937 23.2821 19.5328 23.2571C19.472 23.2321 19.4167 23.1953 19.3702 23.1488C19.3237 23.1023 19.2869 23.047 19.2619 22.9862C19.2369 22.9254 19.2242 22.8602 19.2246 22.7944ZM17.2246 22.7944C17.225 22.7284 17.2383 22.6631 17.264 22.6022C17.2896 22.5414 17.3269 22.4862 17.3738 22.4397C17.4208 22.3933 17.4764 22.3566 17.5376 22.3316C17.5987 22.3067 17.6641 22.2941 17.7302 22.2944C17.7955 22.2948 17.8601 22.308 17.9202 22.3334C17.9804 22.3587 18.035 22.3956 18.081 22.442C18.1269 22.4885 18.1632 22.5435 18.1878 22.6039C18.2125 22.6644 18.225 22.7291 18.2246 22.7944C18.2254 22.8598 18.2131 22.9247 18.1886 22.9854C18.1641 23.046 18.1278 23.1012 18.0818 23.1477C18.0358 23.1942 17.981 23.2311 17.9207 23.2563C17.8603 23.2815 17.7956 23.2944 17.7302 23.2944C17.6638 23.2955 17.5979 23.2834 17.5363 23.2588C17.4746 23.2342 17.4185 23.1975 17.3712 23.151C17.3239 23.1044 17.2863 23.0489 17.2607 22.9877C17.235 22.9265 17.2218 22.8608 17.2218 22.7944H17.2246ZM15.2246 22.7944C15.2246 22.6618 15.2773 22.5347 15.3711 22.4409C15.4648 22.3471 15.592 22.2944 15.7246 22.2944C15.7904 22.2941 15.8556 22.3068 15.9164 22.3318C15.9772 22.3567 16.0325 22.3936 16.079 22.4401C16.1255 22.4866 16.1623 22.5418 16.1873 22.6027C16.2123 22.6635 16.225 22.7287 16.2246 22.7944C16.2254 22.8603 16.2129 22.9257 16.1881 22.9867C16.1632 23.0477 16.1264 23.1031 16.0798 23.1497C16.0333 23.1962 15.9778 23.233 15.9168 23.2579C15.8558 23.2828 15.7905 23.2952 15.7246 23.2944C15.6589 23.2948 15.5937 23.2821 15.5328 23.2571C15.472 23.2321 15.4167 23.1953 15.3702 23.1488C15.3237 23.1023 15.2869 23.047 15.2619 22.9862C15.2369 22.9254 15.2242 22.8602 15.2246 22.7944ZM13.2246 22.7944C13.2246 22.6618 13.2773 22.5347 13.3711 22.4409C13.4648 22.3471 13.592 22.2944 13.7246 22.2944C13.7904 22.2941 13.8556 22.3068 13.9164 22.3318C13.9772 22.3567 14.0325 22.3936 14.079 22.4401C14.1255 22.4866 14.1623 22.5418 14.1873 22.6027C14.2123 22.6635 14.225 22.7287 14.2246 22.7944C14.2254 22.8603 14.2129 22.9257 14.1881 22.9867C14.1632 23.0477 14.1264 23.1031 14.0798 23.1497C14.0333 23.1962 13.9778 23.233 13.9168 23.2579C13.8558 23.2828 13.7905 23.2952 13.7246 23.2944C13.6589 23.2948 13.5937 23.2821 13.5328 23.2571C13.472 23.2321 13.4167 23.1953 13.3702 23.1488C13.3237 23.1023 13.2869 23.047 13.2619 22.9862C13.2369 22.9254 13.2242 22.8602 13.2246 22.7944ZM11.2246 22.7944C11.225 22.7284 11.2383 22.6631 11.264 22.6022C11.2896 22.5414 11.3269 22.4862 11.3738 22.4397C11.4208 22.3933 11.4764 22.3566 11.5376 22.3316C11.5987 22.3067 11.6641 22.2941 11.7302 22.2944C11.8616 22.2959 11.987 22.3493 12.0792 22.443C12.1713 22.5367 12.2226 22.663 12.2218 22.7944C12.2226 22.8598 12.2103 22.9247 12.1858 22.9854C12.1613 23.046 12.125 23.1012 12.079 23.1477C12.033 23.1942 11.9783 23.2311 11.9179 23.2563C11.8575 23.2815 11.7928 23.2944 11.7274 23.2944C11.6615 23.2948 11.5962 23.2821 11.5352 23.2572C11.4742 23.2322 11.4188 23.1954 11.372 23.149C11.3253 23.1025 11.2882 23.0473 11.2629 22.9864C11.2376 22.9256 11.2246 22.8603 11.2246 22.7944ZM9.22462 22.7944C9.22462 22.6618 9.2773 22.5347 9.37106 22.4409C9.46483 22.3471 9.59201 22.2944 9.72462 22.2944C9.79038 22.2941 9.85557 22.3068 9.91639 22.3318C9.97722 22.3567 10.0325 22.3936 10.079 22.4401C10.1255 22.4866 10.1623 22.5418 10.1873 22.6027C10.2123 22.6635 10.225 22.7287 10.2246 22.7944C10.2254 22.8603 10.2129 22.9257 10.1881 22.9867C10.1632 23.0477 10.1264 23.1031 10.0798 23.1497C10.0333 23.1962 9.97784 23.233 9.91684 23.2579C9.85584 23.2828 9.79048 23.2952 9.72462 23.2944C9.65885 23.2948 9.59367 23.2821 9.53284 23.2571C9.47201 23.2321 9.41675 23.1953 9.37024 23.1488C9.32374 23.1023 9.28692 23.047 9.26193 22.9862C9.23693 22.9254 9.22425 22.8602 9.22462 22.7944ZM7.22462 22.7944C7.22462 22.6618 7.2773 22.5347 7.37106 22.4409C7.46483 22.3471 7.59201 22.2944 7.72462 22.2944C7.79038 22.2941 7.85557 22.3068 7.91639 22.3318C7.97722 22.3567 8.03249 22.3936 8.07899 22.4401C8.12549 22.4866 8.16231 22.5418 8.18731 22.6027C8.2123 22.6635 8.22499 22.7287 8.22462 22.7944C8.22536 22.8603 8.21294 22.9257 8.18807 22.9867C8.16321 23.0477 8.12641 23.1031 8.07983 23.1497C8.03325 23.1962 7.97784 23.233 7.91684 23.2579C7.85584 23.2828 7.79048 23.2952 7.72462 23.2944C7.65862 23.2952 7.59314 23.2828 7.53199 23.2579C7.47083 23.2331 7.41524 23.1964 7.36844 23.1498C7.32164 23.1033 7.28458 23.0479 7.25941 22.9869C7.23424 22.9259 7.22147 22.8604 7.22184 22.7944H7.22462ZM5.22462 22.7944C5.22462 22.6618 5.2773 22.5347 5.37106 22.4409C5.46483 22.3471 5.59201 22.2944 5.72462 22.2944C5.79038 22.2941 5.85556 22.3068 5.91639 22.3318C5.97722 22.3567 6.03249 22.3936 6.07899 22.4401C6.1255 22.4866 6.16231 22.5418 6.18731 22.6027C6.2123 22.6635 6.22499 22.7287 6.22462 22.7944C6.22536 22.8603 6.21294 22.9257 6.18807 22.9867C6.16321 23.0477 6.12641 23.1031 6.07983 23.1497C6.03325 23.1962 5.97784 23.233 5.91684 23.2579C5.85584 23.2828 5.79048 23.2952 5.72462 23.2944C5.65885 23.2948 5.59367 23.2821 5.53284 23.2571C5.47201 23.2321 5.41675 23.1953 5.37024 23.1488C5.32374 23.1023 5.28692 23.047 5.26193 22.9862C5.23693 22.9254 5.22425 22.8602 5.22462 22.7944ZM3.22462 22.7944C3.22462 22.6618 3.2773 22.5347 3.37106 22.4409C3.46483 22.3471 3.59201 22.2944 3.72462 22.2944C3.79038 22.2941 3.85556 22.3068 3.91639 22.3318C3.97722 22.3567 4.03249 22.3936 4.07899 22.4401C4.12549 22.4866 4.16231 22.5418 4.18731 22.6027C4.2123 22.6635 4.22499 22.7287 4.22462 22.7944C4.22536 22.8603 4.21294 22.9257 4.18807 22.9867C4.16321 23.0477 4.12641 23.1031 4.07983 23.1497C4.03325 23.1962 3.97784 23.233 3.91684 23.2579C3.85584 23.2828 3.79048 23.2952 3.72462 23.2944C3.65885 23.2948 3.59367 23.2821 3.53284 23.2571C3.47201 23.2321 3.41675 23.1953 3.37024 23.1488C3.32374 23.1023 3.28692 23.047 3.26193 22.9862C3.23693 22.9254 3.22425 22.8602 3.22462 22.7944Z" fill="white"/>
<path d="M21 10.8139C21.0007 10.6815 21.0536 10.5548 21.1473 10.4612C21.2409 10.3676 21.3676 10.3146 21.5 10.3139C21.5658 10.3135 21.6309 10.3262 21.6918 10.3512C21.7526 10.3762 21.8079 10.413 21.8544 10.4595C21.9009 10.506 21.9377 10.5613 21.9627 10.6221C21.9877 10.683 22.0004 10.7481 22 10.8139C22.0004 10.8797 21.9877 10.9449 21.9627 11.0057C21.9377 11.0665 21.9009 11.1218 21.8544 11.1683C21.8079 11.2148 21.7526 11.2516 21.6918 11.2766C21.6309 11.3016 21.5658 11.3143 21.5 11.3139C21.3676 11.3132 21.2409 11.2603 21.1473 11.1667C21.0536 11.073 21.0007 10.9463 21 10.8139ZM21 8.81391C21.0007 8.68153 21.0536 8.55477 21.1473 8.46116C21.2409 8.36755 21.3676 8.31464 21.5 8.31391C21.5658 8.31354 21.6309 8.32622 21.6918 8.35122C21.7526 8.37622 21.8079 8.41303 21.8544 8.45954C21.9009 8.50604 21.9377 8.56131 21.9627 8.62213C21.9877 8.68296 22.0004 8.74815 22 8.81391C22.0004 8.87968 21.9877 8.94486 21.9627 9.00569C21.9377 9.06652 21.9009 9.12178 21.8544 9.16829C21.8079 9.21479 21.7526 9.2516 21.6918 9.2766C21.6309 9.3016 21.5658 9.31428 21.5 9.31391C21.3676 9.31318 21.2409 9.26027 21.1473 9.16666C21.0536 9.07305 21.0007 8.94629 21 8.81391Z" fill="white"/>
<path d="M21 22.625C21.0007 22.4926 21.0536 22.3659 21.1473 22.2723C21.2409 22.1787 21.3676 22.1257 21.5 22.125C21.5658 22.1246 21.6309 22.1373 21.6918 22.1623C21.7526 22.1873 21.8079 22.2241 21.8544 22.2706C21.9009 22.3171 21.9377 22.3724 21.9627 22.4332C21.9877 22.4941 22.0004 22.5592 22 22.625C22.0004 22.6908 21.9877 22.756 21.9627 22.8168C21.9377 22.8776 21.9009 22.9329 21.8544 22.9794C21.8079 23.0259 21.7526 23.0627 21.6918 23.0877C21.6309 23.1127 21.5658 23.1254 21.5 23.125C21.3676 23.1243 21.2409 23.0714 21.1473 22.9778C21.0536 22.8841 21.0007 22.7574 21 22.625ZM21 20.625C21.0007 20.4926 21.0536 20.3659 21.1473 20.2723C21.2409 20.1787 21.3676 20.1257 21.5 20.125C21.5658 20.1246 21.6309 20.1373 21.6918 20.1623C21.7526 20.1873 21.8079 20.2241 21.8544 20.2706C21.9009 20.3171 21.9377 20.3724 21.9627 20.4332C21.9877 20.4941 22.0004 20.5592 22 20.625C22.0004 20.6908 21.9877 20.756 21.9627 20.8168C21.9377 20.8776 21.9009 20.9329 21.8544 20.9794C21.8079 21.0259 21.7526 21.0627 21.6918 21.0877C21.6309 21.1127 21.5658 21.1254 21.5 21.125C21.3676 21.1243 21.2409 21.0714 21.1473 20.9778C21.0536 20.8841 21.0007 20.7574 21 20.625Z" fill="white"/>
<path d="M20.3747 6.76112H19.3747V5.42501C19.3747 5.35134 19.3454 5.28068 19.2933 5.22859C19.2412 5.1765 19.1706 5.14723 19.0969 5.14723H8.78022C8.70655 5.14723 8.63589 5.1765 8.5838 5.22859C8.53171 5.28068 8.50244 5.35134 8.50244 5.42501V6.76112H7.50244V5.42501C7.50353 5.25843 7.53747 5.0937 7.60231 4.94026C7.66715 4.78682 7.76162 4.64767 7.88031 4.53078C7.999 4.4139 8.13958 4.32157 8.294 4.2591C8.44842 4.19662 8.61364 4.16521 8.78022 4.16667H19.1108C19.4462 4.16741 19.7677 4.30119 20.0046 4.53865C20.2416 4.77612 20.3747 5.09788 20.3747 5.43334V6.76112Z" fill="#576065"/>
</g>
<defs>
<clipPath id="clip0_244_1702">
<rect width="25" height="25" fill="white"/>
</clipPath>
</defs>
</svg>
